<svg width="41" height="41" viewBox="0 0 41 41" fill="none" xmlns="http://www.w3.org/2000/svg">
<path d="M5.16025 33.5272H29.8669C31.8884 33.5272 33.5272 31.8884 33.5272 29.8669V5.16025C33.5272 3.13875 31.8884 1.5 29.8669 1.5H5.16025C3.13875 1.5 1.5 3.13875 1.5 5.16025V29.8669C1.5 31.8884 3.13875 33.5272 5.16025 33.5272Z" stroke="#AFAFAF" stroke-width="2.17143"/>
<path d="M5.22841 32.4291L5.18279 32.9257C4.9979 34.9388 6.47989 36.7205 8.49291 36.9054L33.096 39.1652C35.109 39.3501 36.8908 37.8681 37.0757 35.8551L39.3355 11.252C39.5204 9.23895 38.0384 7.45718 36.0253 7.27229L34.6582 7.14672" stroke="#AFAFAF" stroke-width="2.17143" stroke-linecap="round" stroke-dasharray="3.66 3.66"/>
<path d="M16.9645 25.1541L10.5929 20.0866C9.79416 19.4513 8.63013 19.5921 8.00588 20.3995L1.5 28.8143V29.8667C1.5 31.8882 3.13875 33.5269 5.16025 33.5269H29.8669C31.8884 33.5269 33.5272 31.8882 33.5272 29.8667V22.9579L26.5054 14.9277C25.7102 14.0184 24.2678 14.1152 23.6013 15.1226L16.9645 25.1541Z" fill="#AFAFAF"/>
<path d="M15.2717 12.1602C14.6147 11.5032 13.5495 11.5032 12.8925 12.1602C12.2355 12.8172 12.2355 13.8824 12.8925 14.5394C13.5495 15.1964 14.6147 15.1964 15.2717 14.5394C15.9287 13.8824 15.9287 12.8172 15.2717 12.1602Z" fill="#AFAFAF"/>
</svg>
